<svg width="48" height="48" viewBox="0 0 48 48" fill="none" xmlns="http://www.w3.org/2000/svg">
<path opacity="0.4" d="M32.38 4H15.62C8.34 4 4 8.34 4 15.62V32.36C4 39.66 8.34 44 15.62 44H32.36C39.64 44 43.98 39.66 43.98 32.38V15.62C44 8.34 39.66 4 32.38 4Z" fill="#5B5AFF"/>
<path d="M31 20.26C33.0766 20.26 34.76 18.5766 34.76 16.5C34.76 14.4234 33.0766 12.74 31 12.74C28.9234 12.74 27.24 14.4234 27.24 16.5C27.24 18.5766 28.9234 20.26 31 20.26Z" fill="#5B5AFF"/>
<path d="M17 20.26C19.0766 20.26 20.76 18.5766 20.76 16.5C20.76 14.4234 19.0766 12.74 17 12.74C14.9234 12.74 13.24 14.4234 13.24 16.5C13.24 18.5766 14.9234 20.26 17 20.26Z" fill="#5B5AFF"/>
<path d="M31.2 25.8401H16.8C15.4 25.8401 14.26 26.9801 14.26 28.4001C14.26 33.7801 18.64 38.1601 24.02 38.1601C29.4 38.1601 33.78 33.7801 33.78 28.4001C33.76 27.0001 32.6 25.8401 31.2 25.8401Z" fill="#5B5AFF"/>
</svg>
