<svg width="462" height="39" viewBox="0 0 462 39" fill="none" xmlns="http://www.w3.org/2000/svg">
<path d="M144.053 30.2831C143.854 30.2831 143.693 30.1218 143.693 29.9229V0.860183C143.693 0.66126 143.854 0.5 144.053 0.5H148.05C148.249 0.5 148.41 0.661259 148.41 0.860182V29.9229C148.41 30.1218 148.249 30.2831 148.05 30.2831H144.053Z" fill="#101010"/>
<path d="M110.841 30.3091C110.695 30.3091 110.564 30.2212 110.508 30.0864L102.853 10.6915C102.755 10.4544 102.929 10.1938 103.186 10.1938H107.431C107.579 10.1938 107.712 10.2842 107.766 10.4217L110.6 18.4582C111.414 20.5506 112.15 22.5659 112.887 24.5807C112.895 24.6029 112.916 24.6176 112.939 24.6176C112.962 24.6176 112.983 24.6031 112.992 24.5813C113.767 22.5268 114.542 20.4341 115.395 18.3413L118.228 10.4199C118.283 10.2833 118.415 10.1938 118.562 10.1938H122.537C122.793 10.1938 122.968 10.4539 122.87 10.6909L115.253 30.0858C115.197 30.2209 115.066 30.3091 114.92 30.3091H110.841Z" fill="#101010"/>
<path d="M92.3277 30.3091C86.3632 30.3091 81.9192 25.904 81.9192 20.2515C81.9192 14.5599 86.3632 10.1938 92.3277 10.1938C98.2921 10.1938 102.736 14.5599 102.736 20.2515C102.736 25.904 98.2921 30.3091 92.3277 30.3091ZM92.3277 26.1379C95.5632 26.1379 98.0192 23.565 98.0192 20.2515C98.0192 16.9379 95.5632 14.326 92.3277 14.326C89.0531 14.326 86.6361 16.9379 86.6361 20.2515C86.6361 23.565 89.0531 26.1379 92.3277 26.1379Z" fill="#101010"/>
<path fill-rule="evenodd" clip-rule="evenodd" d="M61.3169 38.5C61.118 38.5 60.9568 38.3387 60.9568 38.1398V10.5974C60.9568 10.3985 61.118 10.2372 61.3169 10.2372H70.9364C75.9263 10.2372 80.0585 14.1356 80.0585 20.061C80.0585 26.0644 75.7703 30.3525 70.0788 30.3525C68.4187 30.3525 66.9879 29.9702 65.7866 29.3569C65.7646 29.3457 65.7386 29.3455 65.7165 29.3566C65.6903 29.3697 65.6737 29.3965 65.6737 29.4258V38.1398C65.6737 38.3387 65.5125 38.5 65.3135 38.5H61.3169ZM69.572 26.3763C68.1732 26.3763 66.8438 25.9591 65.8466 25.3874C65.7381 25.3252 65.6737 25.2085 65.6737 25.0835V14.6517C65.6737 14.4527 65.8351 14.2915 66.034 14.2915C67.255 14.2915 68.2774 14.2915 69.8059 14.2915C73.2364 14.2915 75.3025 16.9423 75.3025 20.2949C75.3025 23.7644 73.1974 26.3763 69.572 26.3763Z" fill="#101010"/>
<path d="M19.5869 30.2831C19.388 30.2831 19.2267 30.1218 19.2267 29.9229V0.860183C19.2267 0.66126 19.388 0.5 19.5869 0.5H23.5835C23.7824 0.5 23.9437 0.661259 23.9437 0.860182V12.8545C23.9437 12.8803 23.9583 12.9039 23.9814 12.9155C24.0058 12.9277 24.0351 12.9242 24.056 12.9066C25.6129 11.5954 27.7826 10.5966 30.2979 10.5966C32.403 10.5966 34.0793 11.2593 35.3268 12.5848C36.5352 13.9102 37.003 15.6255 37.003 18.1983V29.9229C37.003 30.1218 36.8418 30.2831 36.6429 30.2831H32.6463C32.4473 30.2831 32.2861 30.1218 32.2861 29.9229V18.7831C32.2861 17.4187 32.0912 16.4051 31.4285 15.7424C30.7657 15.0797 29.8301 14.7678 28.7776 14.7678C27.0364 14.7678 25.2584 15.6132 24.0503 16.7686C23.9813 16.8347 23.9437 16.9266 23.9437 17.0221V29.9229C23.9437 30.1218 23.7824 30.2831 23.5835 30.2831H19.5869Z" fill="#101010"/>
<path d="M7.87459 30.3525C5.48827 30.3525 2.54989 29.8741 0.418357 28.7384C0.303615 28.6772 0.233899 28.5568 0.233899 28.4268V24.9322C0.233899 24.6469 0.551296 24.4725 0.799505 24.613C3.12199 25.9279 5.93631 26.4932 7.95256 26.4932C10.0966 26.4932 11.461 25.8695 11.461 24.5051C11.461 23.5305 10.8763 23.0237 9.239 22.6339C7.60171 22.244 4.60001 21.8152 2.7678 20.9576C0.896612 20.1 0 18.6186 0 16.3966C0 12.3423 3.31356 10.2372 7.95256 10.2372C10.2498 10.2372 12.9472 10.7466 14.8499 11.6598C14.9719 11.7184 15.0475 11.8428 15.0475 11.9782V15.2895C15.0475 15.5614 14.757 15.7364 14.5119 15.6187C12.3012 14.5574 9.83261 14.0576 8.03052 14.0576C6.04238 14.0576 4.71696 14.6423 4.71696 15.9678C4.71696 16.9813 5.45764 17.4491 7.13391 17.839C8.81019 18.1898 11.617 18.5796 13.4102 19.3983C15.2424 20.2559 16.178 21.6983 16.178 24.0763C16.178 28.3644 12.4356 30.3525 7.87459 30.3525Z" fill="#101010"/>
<path fill-rule="evenodd" clip-rule="evenodd" d="M55.8714 30.3135H46.5629C42.7426 30.3135 39.8578 28.2474 39.8578 24.544C39.8578 20.4508 43.0155 18.5796 47.8104 18.5796C48.9799 18.5796 50.3443 18.6966 51.5918 18.8915V17.722C51.5918 15.344 49.9935 14.2915 46.9528 14.2915C44.9938 14.2915 43.269 14.789 42.0064 15.4036C41.7573 15.5249 41.4561 15.349 41.4561 15.0719V11.9255C41.4561 11.7974 41.5235 11.6785 41.636 11.6172C43.0488 10.8459 45.2358 10.2372 47.8884 10.2372C53.1121 10.2372 56.2307 12.5372 56.2307 17.1373V19.673L58.2336 20.0104C58.407 20.0396 58.534 20.1897 58.534 20.3656V22.7475C58.534 22.971 58.3325 23.1406 58.1122 23.1023L56.2307 22.7759V24.661V29.9534C56.2307 30.1523 56.0703 30.3135 55.8714 30.3135ZM51.2318 26.6881H47.6934C45.9002 26.6881 44.4968 25.9474 44.4968 24.2322C44.4968 22.322 46.329 21.6983 48.5121 21.6983C49.4477 21.6983 50.6951 21.8152 51.5918 21.9712V26.3279C51.5918 26.5269 51.4307 26.6881 51.2318 26.6881Z" fill="#101010"/>
<path fill-rule="evenodd" clip-rule="evenodd" d="M139.312 30.3136H130.003C126.183 30.3136 123.298 28.2474 123.298 24.544C123.298 20.4508 126.456 18.5796 131.251 18.5796C132.42 18.5796 133.784 18.6966 135.032 18.8915V17.722C135.032 15.344 133.434 14.2915 130.393 14.2915C128.434 14.2915 126.709 14.789 125.447 15.4036C125.197 15.5249 124.896 15.349 124.896 15.0719V11.9255C124.896 11.7974 124.964 11.6785 125.076 11.6172C126.489 10.8459 128.676 10.2372 131.329 10.2372C136.552 10.2372 139.671 12.5372 139.671 17.1373V19.673L141.674 20.0104C141.847 20.0396 141.974 20.1897 141.974 20.3656V22.7475C141.974 22.971 141.773 23.1406 141.552 23.1023L139.671 22.7759V24.661V29.9534C139.671 30.1523 139.51 30.3136 139.312 30.3136ZM134.672 26.6881H131.134C129.34 26.6881 127.937 25.9474 127.937 24.2322C127.937 22.322 129.769 21.6983 131.952 21.6983C132.888 21.6983 134.135 21.8152 135.032 21.9712V26.3279C135.032 26.5269 134.871 26.6881 134.672 26.6881Z" fill="#101010"/>
<path d="M162.41 29.7072V10.8219H166.997V12.6952L167.074 12.7334C168.603 11.4336 170.629 10.4014 173.076 10.4014C175.293 10.4014 177.511 11.2807 178.657 13.2686C180.684 11.4336 183.016 10.4014 185.577 10.4014C187.641 10.4014 189.323 11.0895 190.47 12.3511C191.617 13.6127 192.114 15.1801 192.114 17.8561V29.7072H187.488V18.6207C187.488 17.0916 187.259 16.174 186.686 15.4859C186.074 14.7978 185.118 14.492 184.201 14.492C182.442 14.492 180.684 15.4859 179.537 16.671C179.575 17.0151 179.575 17.3974 179.575 17.7797V29.7072H174.949V18.6207C174.949 17.0151 174.758 16.174 174.146 15.4859C173.535 14.7978 172.655 14.492 171.661 14.492C169.903 14.492 168.183 15.4859 167.036 16.5946V29.7072H162.41Z" fill="#101010"/>
<path d="M213.827 29.5926C213.139 29.8219 212.26 30.0513 211.266 30.0513C209.431 30.0513 208.016 29.4014 207.252 28.1781H207.214C205.952 29.2103 203.964 30.0895 201.556 30.0895C197.809 30.0895 194.98 28.0634 194.98 24.4316C194.98 20.4175 198.077 18.5825 202.779 18.5825C203.926 18.5825 205.264 18.6972 206.487 18.8883V17.7414C206.487 15.4095 204.92 14.3773 201.938 14.3773C199.721 14.3773 197.809 15.0272 196.548 15.7535V11.8541C197.924 11.0513 200.141 10.4014 202.855 10.4014C207.978 10.4014 211.036 12.6569 211.036 17.168V24.5463C211.036 25.4638 211.457 26.2284 212.68 26.2284C213.101 26.2284 213.483 26.1137 213.827 25.9608V29.5926ZM202.664 26.5342C204.117 26.5342 205.608 26.0372 206.487 25.2726V21.9085C205.608 21.7555 204.385 21.6408 203.467 21.6408C201.326 21.6408 199.529 22.2525 199.529 24.1258C199.529 25.8078 200.906 26.5342 202.664 26.5342Z" fill="#101010"/>
<path d="M215.668 29.7072V10.8219H220.256V13.4598L220.332 13.498C221.632 11.663 223.582 10.6308 225.837 10.6308C226.22 10.6308 226.64 10.669 227.061 10.7837V15.2183C226.602 15.1036 226.105 15.0272 225.608 15.0272C223.314 15.0272 221.594 15.9829 220.294 17.8179V29.7072H215.668Z" fill="#101010"/>
<path d="M229.193 29.7072V0.5H233.819V19.5L233.896 19.5382L241.618 10.8219H247.123L238.98 19.8441L247.429 29.7072H241.809L233.896 20.3028L233.819 20.341V29.7072H229.193Z" fill="#101010"/>
<path d="M264.339 28.4074C262.581 29.4779 259.866 30.1278 257.42 30.1278C251.303 30.1278 246.983 26.3048 246.983 20.3028C246.983 14.2243 251.341 10.4014 256.54 10.4014C261.243 10.4014 265.371 13.498 265.371 19.6911C265.371 20.3028 265.333 21.1056 265.257 21.5644H251.647C252.182 24.6992 254.667 26.2666 257.917 26.2666C260.211 26.2666 262.428 25.4638 264.339 24.2022V28.4074ZM251.685 18.3531H261.052C260.746 15.333 258.605 14.1479 256.502 14.1479C254.285 14.1479 252.182 15.5624 251.685 18.3531Z" fill="#101010"/>
<path d="M266.28 14.7978V10.8219H269.606V5.9668L274.231 4.85815V10.8219H279.584V14.7978H274.231V22.7877C274.231 25.005 275.149 26.1519 277.022 26.1519C277.94 26.1519 278.857 25.8843 279.584 25.5785V29.4014C278.704 29.8219 277.29 30.1278 275.837 30.1278C271.632 30.1278 269.606 27.6429 269.606 23.2465V14.7978H266.28Z" fill="#101010"/>
<path d="M284.645 7.53421C283.039 7.53421 281.739 6.27264 281.739 4.667C281.739 3.0996 283.039 1.7998 284.645 1.7998C286.212 1.7998 287.512 3.0996 287.512 4.667C287.512 6.27264 286.212 7.53421 284.645 7.53421ZM282.313 29.7072V10.8219H286.939V29.7072H282.313Z" fill="#101010"/>
<path d="M291.209 29.7072V10.8219H295.796V12.6952L295.873 12.7334C297.402 11.3954 299.543 10.4014 302.066 10.4014C304.13 10.4014 305.774 11.0513 306.997 12.3511C308.182 13.6509 308.641 15.333 308.641 17.8561V29.7072H304.015V18.4296C304.015 17.0916 303.824 16.0976 303.174 15.4477C302.524 14.7978 301.607 14.492 300.575 14.492C298.816 14.492 297.019 15.3712 295.834 16.5563V29.7072H291.209Z" fill="#101010"/>
<path d="M313.867 32.7274C315.549 33.836 317.805 34.5241 319.984 34.5241C323.539 34.5241 325.604 32.5362 325.604 29.2867V28.1016L325.527 28.0634C324.189 29.0191 322.469 29.5543 320.596 29.5543C315.702 29.5543 311.726 25.8843 311.726 20.2646C311.726 14.6831 315.74 10.4014 321.628 10.4014C323.692 10.4014 325.451 10.9366 326.903 11.7394L330.229 10.8984V29.4014C330.229 35.174 326.33 38.5 320.328 38.5C317.843 38.5 315.511 37.8883 313.867 37.0091V32.7274ZM316.39 20.1117C316.39 23.3229 318.417 25.6932 321.704 25.6932C323.195 25.6932 324.61 25.1579 325.604 24.3934V15.333C324.61 14.7978 323.272 14.3773 321.934 14.3773C318.378 14.3773 316.39 16.9386 316.39 20.1117Z" fill="#101010"/>
<path d="M360.007 29.5926C359.319 29.8219 358.439 30.0513 357.445 30.0513C355.61 30.0513 354.196 29.4014 353.431 28.1781H353.393C352.132 29.2103 350.144 30.0895 347.735 30.0895C343.989 30.0895 341.16 28.0634 341.16 24.4316C341.16 20.4175 344.256 18.5825 348.958 18.5825C350.105 18.5825 351.443 18.6972 352.667 18.8883V17.7414C352.667 15.4095 351.099 14.3773 348.117 14.3773C345.9 14.3773 343.989 15.0272 342.727 15.7535V11.8541C344.103 11.0513 346.321 10.4014 349.035 10.4014C354.158 10.4014 357.216 12.6569 357.216 17.168V24.5463C357.216 25.4638 357.637 26.2284 358.86 26.2284C359.28 26.2284 359.663 26.1137 360.007 25.9608V29.5926ZM348.844 26.5342C350.297 26.5342 351.787 26.0372 352.667 25.2726V21.9085C351.787 21.7555 350.564 21.6408 349.647 21.6408C347.506 21.6408 345.709 22.2525 345.709 24.1258C345.709 25.8078 347.085 26.5342 348.844 26.5342Z" fill="#101010"/>
<path d="M362.88 32.7274C364.562 33.836 366.818 34.5241 368.997 34.5241C372.552 34.5241 374.616 32.5362 374.616 29.2867V28.1016L374.54 28.0634C373.202 29.0191 371.482 29.5543 369.608 29.5543C364.715 29.5543 360.739 25.8843 360.739 20.2646C360.739 14.6831 364.753 10.4014 370.641 10.4014C372.705 10.4014 374.463 10.9366 375.916 11.7394L379.242 10.8984V29.4014C379.242 35.174 375.343 38.5 369.341 38.5C366.856 38.5 364.524 37.8883 362.88 37.0091V32.7274ZM365.403 20.1117C365.403 23.3229 367.429 25.6932 370.717 25.6932C372.208 25.6932 373.622 25.1579 374.616 24.3934V15.333C373.622 14.7978 372.284 14.3773 370.946 14.3773C367.391 14.3773 365.403 16.9386 365.403 20.1117Z" fill="#101010"/>
<path d="M399.644 28.4074C397.886 29.4779 395.172 30.1278 392.725 30.1278C386.608 30.1278 382.288 26.3048 382.288 20.3028C382.288 14.2243 386.646 10.4014 391.846 10.4014C396.548 10.4014 400.677 13.498 400.677 19.6911C400.677 20.3028 400.638 21.1056 400.562 21.5644H386.952C387.487 24.6992 389.972 26.2666 393.222 26.2666C395.516 26.2666 397.733 25.4638 399.644 24.2022V28.4074ZM386.99 18.3531H396.357C396.051 15.333 393.91 14.1479 391.807 14.1479C389.59 14.1479 387.487 15.5624 386.99 18.3531Z" fill="#101010"/>
<path d="M403.831 29.7072V10.8219H408.419V12.6952L408.495 12.7334C410.025 11.3954 412.165 10.4014 414.689 10.4014C416.753 10.4014 418.397 11.0513 419.62 12.3511C420.805 13.6509 421.264 15.333 421.264 17.8561V29.7072H416.638V18.4296C416.638 17.0916 416.447 16.0976 415.797 15.4477C415.147 14.7978 414.23 14.492 413.198 14.492C411.439 14.492 409.642 15.3712 408.457 16.5563V29.7072H403.831Z" fill="#101010"/>
<path d="M440.406 28.6751C438.876 29.669 436.697 30.1278 434.633 30.1278C428.478 30.1278 424.235 25.999 424.235 20.3028C424.235 14.4537 428.746 10.4014 434.748 10.4014C436.774 10.4014 438.762 10.8602 440.253 11.7777V16.0976C438.8 15.1036 437.003 14.4155 435.092 14.4155C431.383 14.4155 428.899 16.8622 428.899 20.2646C428.899 23.7052 431.422 26.0755 435.13 26.0755C437.118 26.0755 439.106 25.3873 440.406 24.3551V28.6751Z" fill="#101010"/>
<path d="M449.152 38.1177H444.335L449.343 27.6046L441.583 10.8219H446.552L449.19 16.7093C450.07 18.6972 450.911 20.6851 451.675 22.5584H451.752C452.593 20.5704 453.434 18.6207 454.313 16.671L456.951 10.8219H461.653L449.152 38.1177Z" fill="#101010"/>
</svg>
