<svg width="48" height="48" viewBox="0 0 48 48" fill="none" xmlns="http://www.w3.org/2000/svg">
<path d="M30.7801 10.42L33.6 16.06C33.98 16.84 35 17.58 35.86 17.74L40.96 18.58C44.22 19.12 44.98 21.48 42.64 23.84L38.66 27.82C38 28.48 37.6201 29.78 37.84 30.72L38.98 35.64C39.88 39.52 37.8 41.04 34.38 39L29.6 36.16C28.74 35.64 27.3 35.64 26.44 36.16L21.66 39C18.24 41.02 16.16 39.52 17.06 35.64L18.2 30.72C18.42 29.8 18.04 28.5 17.38 27.82L13.4 23.84C11.06 21.5 11.82 19.14 15.08 18.58L20.18 17.74C21.04 17.6 22.06 16.84 22.44 16.06L25.26 10.42C26.76 7.36 29.2401 7.36 30.7801 10.42Z" fill="#FF9B47"/>
<path opacity="0.4" d="M16 11.5H4C3.18 11.5 2.5 10.82 2.5 10C2.5 9.18 3.18 8.5 4 8.5H16C16.82 8.5 17.5 9.18 17.5 10C17.5 10.82 16.82 11.5 16 11.5Z" fill="#FF9B47"/>
<path opacity="0.4" d="M10 39.5H4C3.18 39.5 2.5 38.82 2.5 38C2.5 37.18 3.18 36.5 4 36.5H10C10.82 36.5 11.5 37.18 11.5 38C11.5 38.82 10.82 39.5 10 39.5Z" fill="#FF9B47"/>
<path opacity="0.4" d="M6 25.5H4C3.18 25.5 2.5 24.82 2.5 24C2.5 23.18 3.18 22.5 4 22.5H6C6.82 22.5 7.5 23.18 7.5 24C7.5 24.82 6.82 25.5 6 25.5Z" fill="#FF9B47"/>
</svg>
