<svg width="16" height="16" viewBox="0 0 16 16" fill="none" xmlns="http://www.w3.org/2000/svg">
<path d="M5.33333 3.83337C5.06 3.83337 4.83333 3.60671 4.83333 3.33337V1.33337C4.83333 1.06004 5.06 0.833374 5.33333 0.833374C5.60667 0.833374 5.83333 1.06004 5.83333 1.33337V3.33337C5.83333 3.60671 5.60667 3.83337 5.33333 3.83337Z" fill="black"/>
<path d="M10.6667 3.83337C10.3933 3.83337 10.1667 3.60671 10.1667 3.33337V1.33337C10.1667 1.06004 10.3933 0.833374 10.6667 0.833374C10.94 0.833374 11.1667 1.06004 11.1667 1.33337V3.33337C11.1667 3.60671 10.94 3.83337 10.6667 3.83337Z" fill="black"/>
<path d="M5.66667 9.66671C5.58 9.66671 5.49333 9.64672 5.41333 9.61339C5.32667 9.58005 5.26 9.53337 5.19333 9.47337C5.07333 9.34671 5 9.18005 5 9.00005C5 8.91338 5.02 8.82671 5.05333 8.74671C5.08667 8.66671 5.13333 8.59338 5.19333 8.52672C5.26 8.46672 5.32667 8.42004 5.41333 8.3867C5.65333 8.2867 5.95333 8.34005 6.14 8.52672C6.26 8.65338 6.33333 8.82671 6.33333 9.00005C6.33333 9.04005 6.32667 9.08672 6.32 9.13339C6.31333 9.17339 6.3 9.21338 6.28 9.25338C6.26667 9.29338 6.24667 9.33338 6.22 9.37338C6.2 9.40671 6.16667 9.44004 6.14 9.47337C6.01333 9.59337 5.84 9.66671 5.66667 9.66671Z" fill="black"/>
<path d="M8 9.6667C7.91333 9.6667 7.82667 9.64671 7.74667 9.61338C7.66 9.58005 7.59333 9.53337 7.52667 9.47337C7.40667 9.3467 7.33333 9.18004 7.33333 9.00004C7.33333 8.91337 7.35333 8.8267 7.38667 8.7467C7.42 8.6667 7.46667 8.59338 7.52667 8.52671C7.59333 8.46671 7.66 8.42003 7.74667 8.3867C7.98667 8.28003 8.28667 8.34004 8.47333 8.52671C8.59333 8.65338 8.66667 8.8267 8.66667 9.00004C8.66667 9.04004 8.66 9.08671 8.65333 9.13338C8.64667 9.17338 8.63333 9.21337 8.61333 9.25337C8.6 9.29337 8.58 9.33337 8.55333 9.37337C8.53333 9.4067 8.5 9.44003 8.47333 9.47337C8.34667 9.59337 8.17333 9.6667 8 9.6667Z" fill="black"/>
<path d="M10.3333 9.6667C10.2467 9.6667 10.16 9.64671 10.08 9.61338C9.99333 9.58005 9.92667 9.53337 9.86 9.47337C9.83333 9.44003 9.80667 9.4067 9.78 9.37337C9.75333 9.33337 9.73333 9.29337 9.72 9.25337C9.7 9.21337 9.68667 9.17338 9.68 9.13338C9.67333 9.08671 9.66667 9.04004 9.66667 9.00004C9.66667 8.8267 9.74 8.65338 9.86 8.52671C9.92667 8.46671 9.99333 8.42003 10.08 8.3867C10.3267 8.28003 10.62 8.34004 10.8067 8.52671C10.9267 8.65338 11 8.8267 11 9.00004C11 9.04004 10.9933 9.08671 10.9867 9.13338C10.98 9.17338 10.9667 9.21337 10.9467 9.25337C10.9333 9.29337 10.9133 9.33337 10.8867 9.37337C10.8667 9.4067 10.8333 9.44003 10.8067 9.47337C10.68 9.59337 10.5067 9.6667 10.3333 9.6667Z" fill="black"/>
<path d="M5.66667 12C5.58 12 5.49333 11.9801 5.41333 11.9467C5.33333 11.9134 5.26 11.8667 5.19333 11.8067C5.07333 11.68 5 11.5067 5 11.3334C5 11.2467 5.02 11.16 5.05333 11.08C5.08667 10.9934 5.13333 10.92 5.19333 10.86C5.44 10.6134 5.89333 10.6134 6.14 10.86C6.26 10.9867 6.33333 11.16 6.33333 11.3334C6.33333 11.5067 6.26 11.68 6.14 11.8067C6.01333 11.9267 5.84 12 5.66667 12Z" fill="black"/>
<path d="M8 12C7.82667 12 7.65333 11.9267 7.52667 11.8067C7.40667 11.68 7.33333 11.5067 7.33333 11.3334C7.33333 11.2467 7.35333 11.16 7.38667 11.08C7.42 10.9934 7.46667 10.92 7.52667 10.86C7.77333 10.6134 8.22667 10.6134 8.47333 10.86C8.53333 10.92 8.58 10.9934 8.61333 11.08C8.64667 11.16 8.66667 11.2467 8.66667 11.3334C8.66667 11.5067 8.59333 11.68 8.47333 11.8067C8.34667 11.9267 8.17333 12 8 12Z" fill="black"/>
<path d="M10.3333 12.0001C10.16 12.0001 9.98667 11.9267 9.86 11.8067C9.8 11.7467 9.75333 11.6734 9.72 11.5867C9.68667 11.5067 9.66667 11.4201 9.66667 11.3334C9.66667 11.2467 9.68667 11.1601 9.72 11.0801C9.75333 10.9934 9.8 10.9201 9.86 10.8601C10.0133 10.7067 10.2467 10.6334 10.46 10.6801C10.5067 10.6867 10.5467 10.7001 10.5867 10.7201C10.6267 10.7334 10.6667 10.7534 10.7067 10.7801C10.74 10.8001 10.7733 10.8334 10.8067 10.8601C10.9267 10.9867 11 11.1601 11 11.3334C11 11.5067 10.9267 11.6801 10.8067 11.8067C10.68 11.9267 10.5067 12.0001 10.3333 12.0001Z" fill="black"/>
<path d="M13.6667 6.56002H2.33333C2.06 6.56002 1.83333 6.33335 1.83333 6.06002C1.83333 5.78668 2.06 5.56002 2.33333 5.56002H13.6667C13.94 5.56002 14.1667 5.78668 14.1667 6.06002C14.1667 6.33335 13.94 6.56002 13.6667 6.56002Z" fill="black"/>
<path d="M10.6667 15.1667H5.33333C2.9 15.1667 1.5 13.7667 1.5 11.3334V5.66671C1.5 3.23337 2.9 1.83337 5.33333 1.83337H10.6667C13.1 1.83337 14.5 3.23337 14.5 5.66671V11.3334C14.5 13.7667 13.1 15.1667 10.6667 15.1667ZM5.33333 2.83337C3.42667 2.83337 2.5 3.76004 2.5 5.66671V11.3334C2.5 13.24 3.42667 14.1667 5.33333 14.1667H10.6667C12.5733 14.1667 13.5 13.24 13.5 11.3334V5.66671C13.5 3.76004 12.5733 2.83337 10.6667 2.83337H5.33333Z" fill="black"/>
</svg>
