<svg width="48" height="48" viewBox="0 0 48 48" fill="none" xmlns="http://www.w3.org/2000/svg">
<path opacity="0.4" d="M32.38 4H15.62C8.34 4 4 8.34 4 15.62V32.36C4 39.66 8.34 44 15.62 44H32.36C39.64 44 43.98 39.66 43.98 32.38V15.62C44 8.34 39.66 4 32.38 4Z" fill="#36D17D"/>
<path d="M21 17.6201H12C11.18 17.6201 10.5 16.9401 10.5 16.1201C10.5 15.3001 11.18 14.6201 12 14.6201H21C21.82 14.6201 22.5 15.3001 22.5 16.1201C22.5 16.9401 21.82 17.6201 21 17.6201Z" fill="#36D17D"/>
<path d="M36 29.6201H27C26.18 29.6201 25.5 28.9401 25.5 28.1201C25.5 27.3001 26.18 26.6201 27 26.6201H36C36.82 26.6201 37.5 27.3001 37.5 28.1201C37.5 28.9401 36.82 29.6201 36 29.6201Z" fill="#36D17D"/>
<path d="M36 37.1201H27C26.18 37.1201 25.5 36.4401 25.5 35.6201C25.5 34.8001 26.18 34.1201 27 34.1201H36C36.82 34.1201 37.5 34.8001 37.5 35.6201C37.5 36.4401 36.82 37.1201 36 37.1201Z" fill="#36D17D"/>
<path d="M36 14.6201H33.04V11.6201C33.04 10.8001 32.36 10.1201 31.54 10.1201C30.72 10.1201 30.04 10.8001 30.04 11.6201V14.6201H27C26.18 14.6201 25.5 15.3001 25.5 16.1201C25.5 16.9401 26.18 17.6201 27 17.6201H30.04V20.6201C30.04 21.4401 30.72 22.1201 31.54 22.1201C32.36 22.1201 33.04 21.4401 33.04 20.6201V17.6201H36C36.82 17.6201 37.5 16.9401 37.5 16.1201C37.5 15.3001 36.82 14.6201 36 14.6201Z" fill="#36D17D"/>
<path d="M18.62 31.8798L22.06 28.4398C22.64 27.8598 22.64 26.8998 22.06 26.3198C21.48 25.7398 20.52 25.7398 19.94 26.3198L16.5 29.7598L13.06 26.3198C12.48 25.7398 11.52 25.7398 10.94 26.3198C10.36 26.8998 10.36 27.8598 10.94 28.4398L14.38 31.8798L10.94 35.3198C10.36 35.8998 10.36 36.8598 10.94 37.4398C11.24 37.7398 11.62 37.8798 12 37.8798C12.38 37.8798 12.76 37.7398 13.06 37.4398L16.5 33.9998L19.94 37.4398C20.24 37.7398 20.62 37.8798 21 37.8798C21.38 37.8798 21.76 37.7398 22.06 37.4398C22.64 36.8598 22.64 35.8998 22.06 35.3198L18.62 31.8798Z" fill="#36D17D"/>
</svg>
