<svg width="49" height="48" viewBox="0 0 49 48" fill="none" xmlns="http://www.w3.org/2000/svg">
<path opacity="0.4" d="M44.48 21.6805C44.44 20.7205 44.28 19.7805 43.98 18.8805C42.6 14.5605 38.5601 11.4405 33.8 11.4405H28.22C27.06 11.4405 26.98 11.3205 26.36 10.5005L23.5601 6.78046C22.2601 5.04046 21.24 3.98047 17.98 3.98047H13.3199C8.43995 3.98047 4.47998 7.94046 4.47998 12.8205V18.8604V33.2805C4.47998 39.1805 9.28005 43.9805 15.1801 43.9805H33.78C39.68 43.9805 44.48 39.1805 44.48 33.2805V22.1205C44.5 22.0005 44.5 21.8204 44.48 21.6805Z" fill="#7B7BFF"/>
<path d="M31.66 39.3991C27.44 39.6991 27.44 45.8191 31.66 46.1191H41.68C42.9 46.1191 44.0599 45.6791 44.9599 44.8591C47.9199 42.2791 46.3399 37.0791 42.4399 36.5991C41.0399 28.1591 28.8199 31.3591 31.7199 39.3991" fill="#7B7BFF"/>
</svg>
