<svg width="48" height="48" viewBox="0 0 48 48" fill="none" xmlns="http://www.w3.org/2000/svg">
<path opacity="0.4" d="M7.34003 5V28.94C7.34003 30.9 8.26003 32.76 9.84003 33.94L20.26 41.74C22.48 43.4 25.54 43.4 27.76 41.74L38.18 33.94C39.76 32.76 40.68 30.9 40.68 28.94V5H7.34003Z" fill="#7B7BFF"/>
<path d="M44 6.5H4C3.18 6.5 2.5 5.82 2.5 5C2.5 4.18 3.18 3.5 4 3.5H44C44.82 3.5 45.5 4.18 45.5 5C45.5 5.82 44.82 6.5 44 6.5Z" fill="#7B7BFF"/>
<path d="M32 17.5H16C15.18 17.5 14.5 16.82 14.5 16C14.5 15.18 15.18 14.5 16 14.5H32C32.82 14.5 33.5 15.18 33.5 16C33.5 16.82 32.82 17.5 32 17.5Z" fill="#7B7BFF"/>
<path d="M32 27.5H16C15.18 27.5 14.5 26.82 14.5 26C14.5 25.18 15.18 24.5 16 24.5H32C32.82 24.5 33.5 25.18 33.5 26C33.5 26.82 32.82 27.5 32 27.5Z" fill="#7B7BFF"/>
</svg>
