<svg width="25" height="24" viewBox="0 0 25 24" fill="none" xmlns="http://www.w3.org/2000/svg">
<path opacity="0.4" d="M16.69 2H8.31C4.67 2 2.5 4.17 2.5 7.81V16.18C2.5 19.83 4.67 22 8.31 22H16.68C20.32 22 22.49 19.83 22.49 16.19V7.81C22.5 4.17 20.33 2 16.69 2Z" fill="#FF3800"/>
<path d="M13.56 12.0004L15.86 9.70035C16.15 9.41035 16.15 8.93035 15.86 8.64035C15.57 8.35035 15.09 8.35035 14.8 8.64035L12.5 10.9404L10.2 8.64035C9.90998 8.35035 9.42999 8.35035 9.13999 8.64035C8.84999 8.93035 8.84999 9.41035 9.13999 9.70035L11.44 12.0004L9.13999 14.3004C8.84999 14.5904 8.84999 15.0704 9.13999 15.3604C9.28999 15.5104 9.47999 15.5804 9.66999 15.5804C9.85999 15.5804 10.05 15.5104 10.2 15.3604L12.5 13.0604L14.8 15.3604C14.95 15.5104 15.14 15.5804 15.33 15.5804C15.52 15.5804 15.71 15.5104 15.86 15.3604C16.15 15.0704 16.15 14.5904 15.86 14.3004L13.56 12.0004Z" fill="#FF3800"/>
</svg>
