<svg width="48" height="48" viewBox="0 0 48 48" fill="none" xmlns="http://www.w3.org/2000/svg">
<path opacity="0.4" d="M17.34 28H8C5.8 28 4 29.8 4 32V44H17.34V28Z" fill="#FF9B47"/>
<path d="M26.66 20H21.32C19.12 20 17.32 21.8 17.32 24V44H30.66V24C30.66 21.8 28.88 20 26.66 20Z" fill="#FF9B47"/>
<path opacity="0.4" d="M40 34H30.66V44H44V38C44 35.8 42.2 34 40 34Z" fill="#FF9B47"/>
<path d="M30.02 9.69999C30.64 9.07999 30.88 8.33999 30.68 7.69999C30.48 7.05999 29.86 6.6 28.98 6.46L27.06 6.13999C26.98 6.11999 26.8 5.99996 26.76 5.91996L25.7 3.79996C24.9 2.17996 23.08 2.17996 22.28 3.79996L21.22 5.91996C21.18 5.99996 21 6.11999 20.92 6.13999L19 6.46C18.12 6.6 17.52 7.05999 17.3 7.69999C17.1 8.33999 17.34 9.07999 17.96 9.69999L19.44 11.2C19.5 11.26 19.58 11.5 19.56 11.58L19.14 13.42C18.82 14.78 19.34 15.3999 19.68 15.6599C20.02 15.8999 20.76 16.22 21.98 15.5L23.78 14.44C23.86 14.38 24.12 14.38 24.2 14.44L26 15.5C26.56 15.84 27.02 15.94 27.38 15.94C27.8 15.94 28.1 15.7799 28.28 15.6599C28.62 15.4199 29.14 14.8 28.82 13.42L28.4 11.58C28.38 11.48 28.44 11.26 28.52 11.2L30.02 9.69999Z" fill="#FF9B47"/>
</svg>
