<svg width="48" height="48" viewBox="0 0 48 48" fill="none" xmlns="http://www.w3.org/2000/svg">
<path d="M43.3401 13.8998C42.0601 9.55981 38.4401 5.93981 34.1001 4.65981C30.8001 3.69981 28.5201 3.77981 26.9401 4.95981C25.0401 6.37981 24.8201 8.93981 24.8201 10.7598V15.7398C24.8201 20.6598 27.0601 23.1598 31.4601 23.1598H37.2001C39.0001 23.1598 41.5801 22.9398 43.0001 21.0398C44.2201 19.4798 44.3201 17.1998 43.3401 13.8998Z" fill="#7B7BFF"/>
<path opacity="0.4" d="M37.82 26.7193C37.3 26.1193 36.54 25.7793 35.76 25.7793H28.6C25.08 25.7793 22.22 22.9193 22.22 19.3993V12.2393C22.22 11.4593 21.88 10.6993 21.28 10.1793C20.7 9.65932 19.9 9.41932 19.14 9.51932C14.44 10.1193 10.12 12.6993 7.30004 16.5793C4.46004 20.4793 3.42004 25.2393 4.32004 29.9993C5.62004 36.8793 11.12 42.3793 18.02 43.6793C19.12 43.8993 20.22 43.9993 21.32 43.9993C24.94 43.9993 28.44 42.8793 31.42 40.6993C35.3 37.8793 37.88 33.5593 38.48 28.8593C38.58 28.0793 38.34 27.2993 37.82 26.7193Z" fill="#7B7BFF"/>
</svg>
