<svg width="231" height="19" viewBox="0 0 231 19" fill="none" xmlns="http://www.w3.org/2000/svg">
<path d="M72.0266 14.8915C71.9271 14.8915 71.8465 14.8109 71.8465 14.7115V0.180092C71.8465 0.0806301 71.9271 0 72.0266 0H74.0249C74.1244 0 74.205 0.0806295 74.205 0.180091V14.7115C74.205 14.8109 74.1244 14.8915 74.0249 14.8915H72.0266Z" fill="#101010"/>
<path d="M55.4205 14.9045C55.3475 14.9045 55.2818 14.8606 55.254 14.7932L51.4265 5.09574C51.3775 4.97718 51.4647 4.84691 51.5929 4.84691H53.7156C53.7895 4.84691 53.856 4.8921 53.8831 4.96087L55.3 8.97912C55.7068 10.0253 56.0752 11.0329 56.4433 12.0404C56.4473 12.0514 56.4578 12.0588 56.4696 12.0588C56.4812 12.0588 56.4917 12.0516 56.4958 12.0407C56.8834 11.0134 57.2711 9.96703 57.6974 8.92064L59.114 4.95996C59.1414 4.89167 59.2075 4.84691 59.2811 4.84691H61.2686C61.3967 4.84691 61.4838 4.97693 61.4351 5.09545L57.6264 14.7929C57.5986 14.8605 57.5328 14.9045 57.4598 14.9045H55.4205Z" fill="#101010"/>
<path d="M46.1638 14.9045C43.1816 14.9045 40.9596 12.702 40.9596 9.87573C40.9596 7.02996 43.1816 4.84691 46.1638 4.84691C49.146 4.84691 51.3681 7.02996 51.3681 9.87573C51.3681 12.702 49.146 14.9045 46.1638 14.9045ZM46.1638 12.819C47.7816 12.819 49.0096 11.5325 49.0096 9.87573C49.0096 8.21895 47.7816 6.91301 46.1638 6.91301C44.5265 6.91301 43.3181 8.21895 43.3181 9.87573C43.3181 11.5325 44.5265 12.819 46.1638 12.819Z" fill="#101010"/>
<path fill-rule="evenodd" clip-rule="evenodd" d="M30.6585 19C30.559 19 30.4784 18.9194 30.4784 18.8199V5.04871C30.4784 4.94925 30.559 4.86862 30.6585 4.86862H35.4682C37.9631 4.86862 40.0292 6.81778 40.0292 9.78049C40.0292 12.7822 37.8852 14.9263 35.0394 14.9263C34.2093 14.9263 33.494 14.7351 32.8933 14.4284C32.8823 14.4228 32.8693 14.4228 32.8583 14.4283C32.8451 14.4348 32.8369 14.4482 32.8369 14.4629V18.8199C32.8369 18.9194 32.7562 19 32.6568 19H30.6585ZM34.786 12.9381C34.0866 12.9381 33.4219 12.7296 32.9233 12.4437C32.8691 12.4126 32.8369 12.3543 32.8369 12.2917V7.07583C32.8369 6.97637 32.9175 6.89574 33.017 6.89574C33.6275 6.89574 34.1387 6.89574 34.903 6.89574C36.6182 6.89574 37.6513 8.22117 37.6513 9.89744C37.6513 11.6322 36.5987 12.9381 34.786 12.9381Z" fill="#101010"/>
<path d="M9.79346 14.8915C9.694 14.8915 9.61337 14.8109 9.61337 14.7115V0.180092C9.61337 0.0806301 9.694 0 9.79346 0H11.7918C11.8912 0 11.9719 0.0806295 11.9719 0.180091V6.17726C11.9719 6.19016 11.9791 6.20196 11.9907 6.20773C12.0029 6.21384 12.0175 6.2121 12.028 6.2033C12.8065 5.54771 13.8913 5.04831 15.149 5.04831C16.2015 5.04831 17.0397 5.37967 17.6634 6.04238C18.2676 6.7051 18.5015 7.56273 18.5015 8.84917V14.7115C18.5015 14.8109 18.4209 14.8915 18.3214 14.8915H16.3231C16.2237 14.8915 16.143 14.8109 16.143 14.7115V9.14154C16.143 8.45934 16.0456 7.95256 15.7142 7.6212C15.3829 7.28984 14.9151 7.13391 14.3888 7.13391C13.5182 7.13391 12.6292 7.5566 12.0252 8.13431C11.9907 8.16733 11.9719 8.21329 11.9719 8.26105V14.7115C11.9719 14.8109 11.8912 14.8915 11.7918 14.8915H9.79346Z" fill="#101010"/>
<path d="M3.93729 14.9263C2.74414 14.9263 1.27494 14.687 0.209178 14.1192C0.151808 14.0886 0.116949 14.0284 0.116949 13.9634V12.2161C0.116949 12.0735 0.275648 11.9862 0.399753 12.0565C1.56099 12.7139 2.96816 12.9966 3.97628 12.9966C5.04831 12.9966 5.73052 12.6847 5.73052 12.0025C5.73052 11.5152 5.43814 11.2619 4.6195 11.0669C3.80085 10.872 2.3 10.6576 1.3839 10.2288C0.448306 9.79999 0 9.05931 0 7.94829C0 5.92117 1.65678 4.86862 3.97628 4.86862C5.1249 4.86862 6.47362 5.12329 7.42495 5.57991C7.48597 5.6092 7.52374 5.6714 7.52374 5.73908V7.39475C7.52374 7.5307 7.37851 7.6182 7.25595 7.55936C6.15058 7.02871 4.91631 6.77879 4.01526 6.77879C3.02119 6.77879 2.35848 7.07117 2.35848 7.73388C2.35848 8.24066 2.72882 8.47456 3.56696 8.66948C4.40509 8.8449 5.80848 9.03981 6.7051 9.44914C7.6212 9.87795 8.089 10.5991 8.089 11.7881C8.089 13.9322 6.21781 14.9263 3.93729 14.9263Z" fill="#101010"/>
<path fill-rule="evenodd" clip-rule="evenodd" d="M27.9357 14.9068H23.2815C21.3713 14.9068 19.9289 13.8737 19.9289 12.022C19.9289 9.97541 21.5077 9.03981 23.9052 9.03981C24.4899 9.03981 25.1721 9.09829 25.7959 9.19575V8.611C25.7959 7.42202 24.9967 6.89574 23.4764 6.89574C22.4969 6.89574 21.6345 7.14448 21.0032 7.45179C20.8786 7.51243 20.7281 7.42448 20.7281 7.28594V5.71274C20.7281 5.64869 20.7618 5.58927 20.818 5.55858C21.5244 5.17295 22.6179 4.86862 23.9442 4.86862C26.556 4.86862 28.1154 6.01862 28.1154 8.31863V9.58649L29.1168 9.7552C29.2035 9.7698 29.267 9.84487 29.267 9.93278V11.1237C29.267 11.2355 29.1662 11.3203 29.0561 11.3012L28.1154 11.138V12.0805V14.7267C28.1154 14.8262 28.0352 14.9068 27.9357 14.9068ZM25.6159 13.0941H23.8467C22.9501 13.0941 22.2484 12.7237 22.2484 11.8661C22.2484 10.911 23.1645 10.5991 24.256 10.5991C24.7238 10.5991 25.3476 10.6576 25.7959 10.7356V12.914C25.7959 13.0134 25.7154 13.0941 25.6159 13.0941Z" fill="#101010"/>
<path fill-rule="evenodd" clip-rule="evenodd" d="M69.6558 14.9068H65.0015C63.0914 14.9068 61.649 13.8737 61.649 12.022C61.649 9.97541 63.2278 9.03982 65.6253 9.03982C66.21 9.03982 66.8922 9.09829 67.516 9.19575V8.611C67.516 7.42202 66.7168 6.89574 65.1965 6.89574C64.217 6.89574 63.3546 7.14448 62.7233 7.45179C62.5987 7.51243 62.4482 7.42448 62.4482 7.28594V5.71274C62.4482 5.64869 62.4818 5.58927 62.5381 5.55858C63.2445 5.17295 64.338 4.86862 65.6643 4.86862C68.2761 4.86862 69.8355 6.01862 69.8355 8.31863V9.58649L70.8369 9.7552C70.9236 9.7698 70.9871 9.84487 70.9871 9.93278V11.1237C70.9871 11.2355 70.8863 11.3203 70.7762 11.3012L69.8355 11.138V12.0805V14.7267C69.8355 14.8262 69.7552 14.9068 69.6558 14.9068ZM67.336 13.0941H65.5668C64.6702 13.0941 63.9685 12.7237 63.9685 11.8661C63.9685 10.911 64.8846 10.5991 65.9761 10.5991C66.4439 10.5991 67.0677 10.6576 67.516 10.7356V12.914C67.516 13.0134 67.4355 13.0941 67.336 13.0941Z" fill="#101010"/>
<path d="M81.205 14.6036V5.16097H83.4987V6.09759L83.5369 6.1167C84.3015 5.4668 85.3146 4.95071 86.538 4.95071C87.6466 4.95071 88.7553 5.39034 89.3287 6.38431C90.3418 5.4668 91.5078 4.95071 92.7885 4.95071C93.8206 4.95071 94.6617 5.29477 95.2351 5.92555C95.8086 6.55634 96.0571 7.34004 96.0571 8.67807V14.6036H93.7442V9.06036C93.7442 8.29578 93.6295 7.83702 93.3428 7.49296C93.0369 7.14889 92.5591 6.99598 92.1003 6.99598C91.2211 6.99598 90.3418 7.49296 89.7683 8.08551C89.7875 8.25755 89.7875 8.44869 89.7875 8.63984V14.6036H87.4746V9.06036C87.4746 8.25755 87.379 7.83702 87.0732 7.49296C86.7673 7.14889 86.3277 6.99598 85.8307 6.99598C84.9514 6.99598 84.0913 7.49296 83.5178 8.04728V14.6036H81.205Z" fill="#101010"/>
<path d="M106.914 14.5463C106.57 14.661 106.13 14.7757 105.633 14.7757C104.715 14.7757 104.008 14.4507 103.626 13.839H103.607C102.976 14.3551 101.982 14.7948 100.778 14.7948C98.9046 14.7948 97.4901 13.7817 97.4901 11.9658C97.4901 9.95875 99.0384 9.04125 101.389 9.04125C101.963 9.04125 102.632 9.09859 103.244 9.19417V8.62072C103.244 7.45473 102.46 6.93863 100.969 6.93863C99.8603 6.93863 98.9046 7.26358 98.2738 7.62676V5.67706C98.9619 5.27565 100.071 4.95071 101.428 4.95071C103.989 4.95071 105.518 6.07847 105.518 8.334V12.0231C105.518 12.4819 105.729 12.8642 106.34 12.8642C106.55 12.8642 106.742 12.8068 106.914 12.7304V14.5463ZM101.332 13.0171C102.058 13.0171 102.804 12.7686 103.244 12.3863V10.7042C102.804 10.6278 102.192 10.5704 101.734 10.5704C100.663 10.5704 99.7647 10.8763 99.7647 11.8129C99.7647 12.6539 100.453 13.0171 101.332 13.0171Z" fill="#101010"/>
<path d="M107.834 14.6036V5.16097H110.128V6.47988L110.166 6.49899C110.816 5.58149 111.791 5.06539 112.919 5.06539C113.11 5.06539 113.32 5.08451 113.53 5.14185V7.35916C113.301 7.30181 113.052 7.26358 112.804 7.26358C111.657 7.26358 110.797 7.74145 110.147 8.65895V14.6036H107.834Z" fill="#101010"/>
<path d="M114.597 14.6036V0H116.91V9.5L116.948 9.51912L120.809 5.16097H123.561L119.49 9.67203L123.714 14.6036H120.905L116.948 9.90141L116.91 9.92052V14.6036H114.597Z" fill="#101010"/>
<path d="M132.17 13.9537C131.29 14.4889 129.933 14.8139 128.71 14.8139C125.652 14.8139 123.492 12.9024 123.492 9.90141C123.492 6.86217 125.671 4.95071 128.27 4.95071C130.621 4.95071 132.686 6.49899 132.686 9.59557C132.686 9.90141 132.667 10.3028 132.628 10.5322H125.824C126.091 12.0996 127.334 12.8833 128.958 12.8833C130.105 12.8833 131.214 12.4819 132.17 11.8511V13.9537ZM125.843 8.92656H130.526C130.373 7.4165 129.302 6.82394 128.251 6.82394C127.142 6.82394 126.091 7.53119 125.843 8.92656Z" fill="#101010"/>
<path d="M133.14 7.14889V5.16097H134.803V2.7334L137.116 2.17907V5.16097H139.792V7.14889H137.116V11.1439C137.116 12.2525 137.574 12.826 138.511 12.826C138.97 12.826 139.429 12.6922 139.792 12.5392V14.4507C139.352 14.661 138.645 14.8139 137.919 14.8139C135.816 14.8139 134.803 13.5714 134.803 11.3732V7.14889H133.14Z" fill="#101010"/>
<path d="M142.322 3.5171C141.52 3.5171 140.87 2.88632 140.87 2.0835C140.87 1.2998 141.52 0.6499 142.322 0.6499C143.106 0.6499 143.756 1.2998 143.756 2.0835C143.756 2.88632 143.106 3.5171 142.322 3.5171ZM141.156 14.6036V5.16097H143.469V14.6036H141.156Z" fill="#101010"/>
<path d="M145.604 14.6036V5.16097H147.898V6.09759L147.936 6.1167C148.701 5.44769 149.771 4.95071 151.033 4.95071C152.065 4.95071 152.887 5.27565 153.499 5.92555C154.091 6.57545 154.321 7.4165 154.321 8.67807V14.6036H152.008V8.96479C152.008 8.29578 151.912 7.79879 151.587 7.47384C151.262 7.14889 150.803 6.99598 150.287 6.99598C149.408 6.99598 148.51 7.43561 147.917 8.02817V14.6036H145.604Z" fill="#101010"/>
<path d="M156.934 16.1137C157.775 16.668 158.902 17.0121 159.992 17.0121C161.77 17.0121 162.802 16.0181 162.802 14.3934V13.8008L162.764 13.7817C162.095 14.2596 161.234 14.5272 160.298 14.5272C157.851 14.5272 155.863 12.6922 155.863 9.88229C155.863 7.09155 157.87 4.95071 160.814 4.95071C161.846 4.95071 162.725 5.21831 163.452 5.61972L165.115 5.1992V14.4507C165.115 17.337 163.165 19 160.164 19C158.922 19 157.756 18.6942 156.934 18.2545V16.1137ZM158.195 9.80584C158.195 11.4115 159.208 12.5966 160.852 12.5966C161.598 12.5966 162.305 12.329 162.802 11.9467V7.4165C162.305 7.14889 161.636 6.93863 160.967 6.93863C159.189 6.93863 158.195 8.21932 158.195 9.80584Z" fill="#101010"/>
<path d="M180.003 14.5463C179.659 14.661 179.22 14.7757 178.723 14.7757C177.805 14.7757 177.098 14.4507 176.716 13.839H176.697C176.066 14.3551 175.072 14.7948 173.868 14.7948C171.994 14.7948 170.58 13.7817 170.58 11.9658C170.58 9.95875 172.128 9.04125 174.479 9.04125C175.053 9.04125 175.722 9.09859 176.333 9.19417V8.62072C176.333 7.45473 175.55 6.93863 174.059 6.93863C172.95 6.93863 171.994 7.26358 171.364 7.62676V5.67706C172.052 5.27565 173.16 4.95071 174.517 4.95071C177.079 4.95071 178.608 6.07847 178.608 8.334V12.0231C178.608 12.4819 178.818 12.8642 179.43 12.8642C179.64 12.8642 179.831 12.8068 180.003 12.7304V14.5463ZM174.422 13.0171C175.148 13.0171 175.894 12.7686 176.333 12.3863V10.7042C175.894 10.6278 175.282 10.5704 174.823 10.5704C173.753 10.5704 172.855 10.8763 172.855 11.8129C172.855 12.6539 173.543 13.0171 174.422 13.0171Z" fill="#101010"/>
<path d="M181.44 16.1137C182.281 16.668 183.409 17.0121 184.498 17.0121C186.276 17.0121 187.308 16.0181 187.308 14.3934V13.8008L187.27 13.7817C186.601 14.2596 185.741 14.5272 184.804 14.5272C182.357 14.5272 180.37 12.6922 180.37 9.88229C180.37 7.09155 182.377 4.95071 185.32 4.95071C186.352 4.95071 187.232 5.21831 187.958 5.61972L189.621 5.1992V14.4507C189.621 17.337 187.671 19 184.67 19C183.428 19 182.262 18.6942 181.44 18.2545V16.1137ZM182.702 9.80584C182.702 11.4115 183.715 12.5966 185.358 12.5966C186.104 12.5966 186.811 12.329 187.308 11.9467V7.4165C186.811 7.14889 186.142 6.93863 185.473 6.93863C183.696 6.93863 182.702 8.21932 182.702 9.80584Z" fill="#101010"/>
<path d="M199.822 13.9537C198.943 14.4889 197.586 14.8139 196.362 14.8139C193.304 14.8139 191.144 12.9024 191.144 9.90141C191.144 6.86217 193.323 4.95071 195.923 4.95071C198.274 4.95071 200.338 6.49899 200.338 9.59557C200.338 9.90141 200.319 10.3028 200.281 10.5322H193.476C193.744 12.0996 194.986 12.8833 196.611 12.8833C197.758 12.8833 198.866 12.4819 199.822 11.8511V13.9537ZM193.495 8.92656H198.178C198.025 7.4165 196.955 6.82394 195.904 6.82394C194.795 6.82394 193.744 7.53119 193.495 8.92656Z" fill="#101010"/>
<path d="M201.916 14.6036V5.16097H204.209V6.09759L204.248 6.1167C205.012 5.44769 206.083 4.95071 207.344 4.95071C208.376 4.95071 209.198 5.27565 209.81 5.92555C210.403 6.57545 210.632 7.4165 210.632 8.67807V14.6036H208.319V8.96479C208.319 8.29578 208.224 7.79879 207.899 7.47384C207.574 7.14889 207.115 6.99598 206.599 6.99598C205.72 6.99598 204.821 7.43561 204.229 8.02817V14.6036H201.916Z" fill="#101010"/>
<path d="M220.203 14.0875C219.438 14.5845 218.349 14.8139 217.316 14.8139C214.239 14.8139 212.117 12.7495 212.117 9.90141C212.117 6.97686 214.373 4.95071 217.374 4.95071C218.387 4.95071 219.381 5.18008 220.126 5.63883V7.79879C219.4 7.30181 218.502 6.95775 217.546 6.95775C215.692 6.95775 214.449 8.18109 214.449 9.88229C214.449 11.6026 215.711 12.7877 217.565 12.7877C218.559 12.7877 219.553 12.4437 220.203 11.9276V14.0875Z" fill="#101010"/>
<path d="M224.576 18.8089H222.168L224.672 13.5523L220.791 5.16097H223.276L224.595 8.10463C225.035 9.09859 225.455 10.0926 225.838 11.0292H225.876C226.296 10.0352 226.717 9.06036 227.156 8.08551L228.475 5.16097H230.827L224.576 18.8089Z" fill="#101010"/>
</svg>
